<svg width="26" height="26" viewBox="0 0 26 26" fill="none" xmlns="http://www.w3.org/2000/svg">
<path d="M19.9963 18.5523L18.419 7.31225C18.3881 7.13196 18.2301 7 18.0452 7H16.4025C16.1931 7 16.0242 7.16779 16.0242 7.37482V8.60413C16.0242 8.81112 15.8537 8.97895 15.6444 8.97895H14.5288C14.3195 8.97895 14.1475 8.81116 14.1475 8.60413V7.37482C14.1475 7.16783 13.98 7 13.7707 7H12.1867C11.9774 7 11.824 7.16779 11.824 7.37482V8.60413C11.824 8.81112 11.6379 8.97895 11.4286 8.97895H10.3556C10.1463 8.97895 9.99206 8.81116 9.99206 8.60413V7.37482C9.99206 7.16783 9.80685 7 9.59751 7H7.9548C7.76986 7 7.61191 7.13196 7.58103 7.31225L6.0037 18.5523C5.97041 18.7894 6.16625 19 6.42014 19H11.0319C11.2639 19 11.4665 18.8228 11.4665 18.6042V14.9308C11.4665 14.7044 11.6239 14.5368 11.8529 14.5368H14.147C14.376 14.5368 14.5943 14.7044 14.5943 14.9308V18.6042C14.5943 18.8228 14.7679 19 14.9999 19H19.5798C19.8337 19 20.0296 18.7894 19.9963 18.5523Z" fill="white"/>
</svg>
