<svg width="26" height="26" viewBox="0 0 26 26" fill="none" xmlns="http://www.w3.org/2000/svg">
<path d="M20.3422 16.4102H5.65625C5.40385 16.4102 5.19922 16.6148 5.19922 16.8672V18.3602C5.19922 18.6126 5.40385 18.8172 5.65625 18.8172H20.3422C20.5946 18.8172 20.7992 18.6126 20.7992 18.3602V16.8672C20.7992 16.6148 20.5946 16.4102 20.3422 16.4102Z" fill="white"/>
<path d="M19.6494 13.6094H6.35267L6.19141 15.5002H19.8839L19.6494 13.6094Z" fill="white"/>
<path d="M19.4587 11.0977H6.54115L6.45312 12.9152H19.5468L19.4587 11.0977Z" fill="white"/>
<path d="M19.0623 7.58626C19.0366 7.35479 18.8409 7.17969 18.608 7.17969H17.2065C17.0196 7.17969 16.8515 7.29346 16.7821 7.46698L16.4096 8.39844H9.594L9.2214 7.46698C9.15202 7.29346 8.98398 7.17969 8.79709 7.17969H7.39552C7.16262 7.17969 6.96701 7.35479 6.9413 7.58626L6.64453 10.257H19.359L19.0623 7.58626Z" fill="white"/>
</svg>
