<?xml version="1.0" ?><svg  width="26" height="26" viewBox="0 0 512 512" xmlns="http://www.w3.org/2000/svg"><title/><g id="Boba_tea"><path d="M303.5083,95.79l5.5432-20.69c1.3272-4.9531-.5378-10.4192-5.1174-14.9988a35.941,35.941,0,0,0-15.9824-8.7381c-14.3638-3.85-27.6092.5478-30.1443,10.0057L249.93,90.7661c-72.0322,1.8914-127.91,36.3479-127.91,79.461,0,14.3754,6.4907,27.8607,17.7752,39.5122V346.2617a116.3052,116.3052,0,1,0,232.61,0v-136.52c11.2859-11.6521,17.7778-25.1379,17.7778-39.5146C390.1833,136.8127,355.5537,107.353,303.5083,95.79Zm-143.7812,48.613a5.1005,5.1005,0,0,1,.2788,7.2068c-5.7871,6.2529-8.8477,12.69-8.8477,18.617,0,16.8239,24.688,39.1638,70.4436,47.4313a5.1,5.1,0,0,1-.9014,10.118,4.9486,4.9486,0,0,1-.9113-.0823c-45.6785-8.25-78.8311-32.42-78.8311-57.467,0-8.5416,4-17.3744,11.5623-25.545A5.0918,5.0918,0,0,1,159.7271,144.4033ZM332.395,215.1309a5.1,5.1,0,1,1-4.4177-9.1939c20.395-9.8066,33.0652-23.4879,33.0652-35.71a5.1,5.1,0,1,1,10.2,0C371.2427,186.65,356.72,203.4368,332.395,215.1309ZM267.6587,64.0085c.533-1.9846,4.4277-3.84,10.0381-3.84a29.6374,29.6374,0,0,1,7.6152,1.0459,26.0423,26.0423,0,0,1,11.41,6.0985c1.9052,1.905,2.8315,3.83,2.478,5.1473s-2.1167,2.52-4.7192,3.2173a28.4765,28.4765,0,0,1-24.3445-6.5218C268.2314,67.2509,267.3052,65.3259,267.6587,64.0085ZM264.082,77.3562A36.6315,36.6315,0,0,0,278.91,85.1084,40.072,40.072,0,0,0,289.2341,86.51a31.257,31.257,0,0,0,6.3863-.69l-23.1131,86.2644c-2.0195,2.916-8.2129,5.8472-16.4057,5.8472-9.9036,0-16.4031-4.1165-17.0332-7.2217Zm98.1236,268.9055a106.1053,106.1053,0,1,1-212.21,0V218.7866c24.5425,18.8411,62.9649,31.0083,106.1065,31.0083,43.14,0,81.5615-12.1665,106.104-31.0064Z" fill="white"/><path d="M187.8093,348.1145a20.7013,20.7013,0,1,0,20.7014,20.7012A20.7235,20.7235,0,0,0,187.8093,348.1145Z" fill="white"/><path d="M225.7058,391.3175a20.7,20.7,0,1,0,20.7014,20.7013A20.7237,20.7237,0,0,0,225.7058,391.3175Z" fill="white"/><path d="M319.8315,409.668a20.7,20.7,0,1,0-20.6987-20.6988A20.7237,20.7237,0,0,0,319.8315,409.668Z" fill="white"/><path d="M249.8237,382.2605a20.7,20.7,0,1,0,20.6988-20.7013A20.7237,20.7237,0,0,0,249.8237,382.2605Z" fill="white"/><path d="M323.5945,355.3336a20.7014,20.7014,0,1,0-20.699-20.7013A20.7239,20.7239,0,0,0,323.5945,355.3336Z" fill="white"/><path d="M241.3071,316.9143a20.7,20.7,0,1,0,20.7012,20.7013A20.7242,20.7242,0,0,0,241.3071,316.9143Z"  fill="white"/></g></svg>