<svg width="26" height="26" viewBox="0 0 26 26" fill="none" xmlns="http://www.w3.org/2000/svg">
<path d="M8.41667 13.0013C8.41667 13.4875 8.22351 13.9538 7.8797 14.2977C7.53588 14.6415 7.06956 14.8346 6.58333 14.8346C6.0971 14.8346 5.63079 14.6415 5.28697 14.2977C4.94315 13.9538 4.75 13.4875 4.75 13.0013C4.75 12.5151 4.94315 12.0488 5.28697 11.7049C5.63079 11.3611 6.0971 11.168 6.58333 11.168C7.06956 11.168 7.53588 11.3611 7.8797 11.7049C8.22351 12.0488 8.41667 12.5151 8.41667 13.0013ZM14.8333 13.0013C14.8333 13.4875 14.6402 13.9538 14.2964 14.2977C13.9525 14.6415 13.4862 14.8346 13 14.8346C12.5138 14.8346 12.0475 14.6415 11.7036 14.2977C11.3598 13.9538 11.1667 13.4875 11.1667 13.0013C11.1667 12.5151 11.3598 12.0488 11.7036 11.7049C12.0475 11.3611 12.5138 11.168 13 11.168C13.4862 11.168 13.9525 11.3611 14.2964 11.7049C14.6402 12.0488 14.8333 12.5151 14.8333 13.0013ZM21.25 13.0013C21.25 13.4875 21.0568 13.9538 20.713 14.2977C20.3692 14.6415 19.9029 14.8346 19.4167 14.8346C18.9304 14.8346 18.4641 14.6415 18.1203 14.2977C17.7765 13.9538 17.5833 13.4875 17.5833 13.0013C17.5833 12.5151 17.7765 12.0488 18.1203 11.7049C18.4641 11.3611 18.9304 11.168 19.4167 11.168C19.9029 11.168 20.3692 11.3611 20.713 11.7049C21.0568 12.0488 21.25 12.5151 21.25 13.0013Z" fill="white"/>
</svg>
