<svg width="26" height="26" viewBox="0 0 26 26" fill="none" xmlns="http://www.w3.org/2000/svg">
<path d="M18.1535 9.69141H14.168L16.6152 12.6081H19.9978V11.9995L18.1535 9.69141Z" fill="white"/>
<path d="M7.84439 9.69141L6 11.9995V12.6081H9.38264L11.8299 9.69141H7.84439Z" fill="white"/>
<path d="M19.2435 19.1797V13.4102H16.2348L13.4102 10.0436V8.27864H15.7789V6H12.5898V10.0436L9.76518 13.4102H6.75652V19.1797H6V20H20V19.1797H19.2435ZM8.19663 14.75H9.01695V15.9167H8.19663V14.75ZM9.03797 18.25H8.21766V17.0833H9.03797V18.25ZM13 11.7148C13.7086 11.7148 14.2852 12.2914 14.2852 13C14.2852 13.7086 13.7086 14.2852 13 14.2852C12.2914 14.2852 11.7148 13.7086 11.7148 13C11.7148 12.2914 12.2914 11.7148 13 11.7148ZM15.1602 19.1797H14.3398V16.3268H13.4102V19.1797H12.5898V16.3268H11.6602V19.1797H10.8398V15.5065H15.1602V19.1797ZM17.7824 18.25H16.9621V17.0833H17.7824V18.25ZM17.8034 15.9167H16.9831V14.75H17.8034V15.9167Z" fill="white"/>
<path d="M13 12.5352C12.7437 12.5352 12.5352 12.7437 12.5352 13C12.5352 13.2563 12.7437 13.4648 13 13.4648C13.2563 13.4648 13.4648 13.2563 13.4648 13C13.4648 12.7437 13.2563 12.5352 13 12.5352Z" fill="white"/>
</svg>
