<svg width="27" height="26" viewBox="0 0 27 26" fill="none" xmlns="http://www.w3.org/2000/svg">
<path d="M21.5934 7.58844H11.8437C12.2912 7.26978 12.5829 6.74982 12.5829 6.16196C12.5829 5.1923 11.7899 4.40625 10.8117 4.40625C9.83344 4.40625 9.04044 5.19236 9.04044 6.16202C9.04044 7.13072 9.8319 7.91614 10.8088 7.91766C10.6503 8.08969 10.5513 8.31581 10.5436 8.56529C10.3753 8.40612 10.1658 8.28507 9.92564 8.22041C9.15614 8.01345 8.36204 8.46378 8.15292 9.22705L6.91067 13.7614C6.89802 13.8075 6.84788 14.0227 6.84512 14.0384C6.84261 14.053 6.84043 14.0676 6.83857 14.0823C6.83645 14.0993 6.83484 14.1163 6.83362 14.1333C6.83266 14.1472 6.83189 14.1611 6.83157 14.1751C6.83112 14.1933 6.83131 14.2113 6.83189 14.2293C6.83215 14.2375 6.83157 14.2455 6.83202 14.2536C6.94842 16.3155 6.15124 18.3163 4.64498 19.743L4.42668 19.9498C4.04209 20.3141 4.02822 20.9184 4.39567 21.2995C4.58488 21.4959 4.8383 21.5947 5.09217 21.5947C5.33134 21.5947 5.57083 21.5069 5.75734 21.3303L5.97564 21.1235C7.43985 19.7367 8.37604 17.9228 8.66952 15.9741C10.3876 17.2918 11.7549 19.0076 12.649 20.9804C12.8094 21.3343 13.1605 21.544 13.528 21.544C13.66 21.544 13.794 21.5169 13.9222 21.4599C14.4074 21.2438 14.624 20.6788 14.406 20.1979C13.3623 17.8953 11.7567 15.8976 9.73572 14.3775L10.4058 11.9318C10.8166 12.3304 11.3707 12.555 11.9452 12.555C11.971 12.555 11.9969 12.5545 12.0228 12.5536C12.5569 12.5349 13.0644 12.3226 13.4505 11.9637L14.2321 12.3378C14.5355 12.4831 14.8618 12.5538 15.186 12.5538C15.7483 12.5538 16.3042 12.3414 16.723 11.9378L19.1105 9.63735C19.1413 9.60763 19.1688 9.57593 19.1947 9.54335C19.6601 9.45654 20.0122 9.05674 20.0122 8.60666H21.6281C21.8881 8.60666 22.0989 8.39772 22.0989 8.13997V8.08956C22.0991 7.81284 21.8727 7.58844 21.5934 7.58844ZM11.9546 10.6455C11.9091 10.6472 11.8216 10.6386 11.7477 10.563L10.9805 9.7787C10.9963 9.65415 10.9955 9.5303 10.9789 9.40989C11.1278 9.50529 11.3049 9.5613 11.4955 9.5613H12.9925L12.155 10.5486C12.0867 10.6292 12.0001 10.644 11.9546 10.6455ZM15.0699 10.6186L14.7445 10.4628L15.2062 9.91839C15.2976 9.81065 15.36 9.68864 15.3958 9.56136H16.4261L15.3807 10.5687C15.2983 10.6481 15.1735 10.6681 15.0699 10.6186Z" fill="white"/>
</svg>
