<svg width="26" height="26" viewBox="0 0 26 26" fill="none" xmlns="http://www.w3.org/2000/svg">
<path d="M19.4245 18.1411V12.6797H6.574V18.1411H6.00391V19.4262H19.9946V18.1411H19.4245ZM11.0717 18.1411V15.571L12.3567 14.286H13.6418L14.9268 15.571V18.1411H11.0717Z" fill="white"/>
<path d="M21.9997 9.94678C21.9926 11.0538 21.0809 11.715 20.2032 11.715H5.79654C4.91885 11.715 4.00711 11.0538 4.00004 9.94678C3.9994 9.82213 4.00647 9.69234 4.02703 9.56191C4.0675 9.29654 4.32002 9.10957 4.58152 9.15455C4.84753 9.19438 5.02936 9.44304 4.98888 9.7084C4.97668 9.78743 4.97282 9.86518 4.97346 9.93971C4.97668 10.4415 5.39432 10.7416 5.79654 10.7416H6.19298L8.43153 7.94339C8.47715 7.8862 8.50221 7.81552 8.50221 7.74292V6.76307C8.50221 6.65641 8.58831 6.57031 8.69497 6.57031H9.31564C9.40431 6.57031 9.48142 6.63071 9.50262 6.71617L9.78726 7.85536H11.2998L10.097 10.7422H11.1411L12.3439 7.85536H13.6559L14.8587 10.7422H15.9028L14.7 7.85536H16.2125L16.4971 6.71617C16.519 6.63071 16.5961 6.57031 16.6841 6.57031H17.3048C17.4115 6.57031 17.4975 6.65641 17.4975 6.76307V7.74292C17.4975 7.81617 17.5226 7.88684 17.5682 7.94339L19.8074 10.7422H20.2039C20.6061 10.7422 21.0237 10.4422 21.0269 9.94035C21.0276 9.86582 21.0237 9.78807 21.0115 9.70904C20.971 9.44368 21.1535 9.19502 21.4189 9.15519C21.683 9.10893 21.9329 9.29654 21.9734 9.56255C21.9933 9.69234 22.0004 9.82213 21.9997 9.94678Z" fill="white"/>
</svg>
