<svg width="26" height="26" viewBox="0 0 26 26" fill="none" xmlns="http://www.w3.org/2000/svg">
<path d="M14.1311 11.5694H11.8711V10.4347C11.8711 9.81175 12.3779 9.30469 13.0011 9.30469C13.6243 9.30469 14.1311 9.81175 14.1311 10.4347V11.5694Z" fill="white"/>
<path d="M14.2716 12.4531H13.4389V14.1296H12.5566V12.4531H11.7245L8.89453 19.4825H17.1125L14.2716 12.4531ZM13.4389 18.0414H12.5566V15.9825H13.4389V18.0414Z" fill="white"/>
<path d="M19.5 13.0117V19.4823H18.0553V19.4552L15.0124 11.9258V10.4358C15.0124 9.32613 14.1097 8.42348 13 8.42348C11.8903 8.42348 10.9876 9.32613 10.9876 10.4358V11.9264L7.94588 19.4823H6.5V13.0117C6.5 11.2755 7.17618 9.64319 8.40382 8.41554C9.63147 7.1879 11.2638 6.51172 13 6.51172C14.7362 6.51172 16.3685 7.1879 17.5962 8.41554C18.8238 9.64319 19.5 11.2755 19.5 13.0117Z" fill="white"/>
</svg>
