<svg width="15" height="14" viewBox="0 0 15 14" fill="none" xmlns="http://www.w3.org/2000/svg">
<path d="M14.1013 12.2092C14.2862 12.3942 14.3901 12.645 14.3901 12.9065C14.3901 13.168 14.2862 13.4189 14.1013 13.6038C13.9164 13.7887 13.6656 13.8926 13.4041 13.8926C13.1425 13.8926 12.8917 13.7887 12.7068 13.6038L7.49862 8.39397L2.28882 13.6021C2.10389 13.7871 1.85308 13.891 1.59155 13.891C1.33003 13.891 1.07921 13.7871 0.894286 13.6021C0.709359 13.4172 0.605469 13.1664 0.605469 12.9049C0.605469 12.6433 0.709359 12.3925 0.894286 12.2076L6.10409 6.99944L0.895926 1.78964C0.711 1.60471 0.607109 1.3539 0.607109 1.09237C0.607109 0.830846 0.711 0.580032 0.895926 0.395106C1.08085 0.21018 1.33167 0.106289 1.59319 0.106289C1.85472 0.106289 2.10553 0.21018 2.29046 0.395106L7.49862 5.60491L12.7084 0.394285C12.8934 0.209359 13.1442 0.105469 13.4057 0.105469C13.6672 0.105469 13.918 0.209359 14.103 0.394285C14.2879 0.579212 14.3918 0.830026 14.3918 1.09155C14.3918 1.35308 14.2879 1.60389 14.103 1.78882L8.89315 6.99944L14.1013 12.2092Z" fill="#B5985E"/>
</svg>
