<svg width="21" height="22" viewBox="0 0 21 22" fill="none" xmlns="http://www.w3.org/2000/svg">
<path d="M17.0998 5.88H14.6998V4.28C14.6998 3.574 14.1617 3 13.4998 3H7.4998C6.83793 3 6.2998 3.574 6.2998 4.28V5.88H3.8998C3.56793 5.88 3.2998 6.166 3.2998 6.52V7.16C3.2998 7.248 3.3673 7.32 3.4498 7.32H4.5823L5.04543 17.78C5.07543 18.462 5.60418 19 6.24355 19H14.7561C15.3973 19 15.9242 18.464 15.9542 17.78L16.4173 7.32H17.5498C17.6323 7.32 17.6998 7.248 17.6998 7.16V6.52C17.6998 6.166 17.4317 5.88 17.0998 5.88ZM13.3498 5.88H7.6498V4.44H13.3498V5.88Z" fill="#6D7A83"/>
</svg>
