<svg width="21" height="22" viewBox="0 0 21 22" fill="none" xmlns="http://www.w3.org/2000/svg">
<path d="M11.2071 20.2801C10.8165 20.6706 10.1834 20.6706 9.79284 20.2801L7.25632 17.7436C6.91466 17.4019 6.91466 16.848 7.25632 16.5063C7.59798 16.1647 8.15191 16.1647 8.49357 16.5063L9.62494 17.6377V11.8749H3.8622L4.99357 13.0063C5.33523 13.348 5.33523 13.9019 4.99357 14.2436C4.65191 14.5852 4.09798 14.5852 3.75632 14.2436L1.2198 11.7071C0.829277 11.3165 0.829278 10.6834 1.2198 10.2928L3.75632 7.75632C4.09798 7.41466 4.65191 7.41466 4.99357 7.75632C5.33523 8.09798 5.33523 8.65191 4.99357 8.99357L3.8622 10.1249H9.62494V4.3622L8.49357 5.49357C8.15191 5.83523 7.59798 5.83523 7.25632 5.49357C6.91466 5.15191 6.91466 4.59798 7.25632 4.25632L9.79284 1.7198C10.1834 1.32928 10.8165 1.32928 11.2071 1.7198L13.7436 4.25632C14.0852 4.59798 14.0852 5.15191 13.7436 5.49357C13.4019 5.83523 12.848 5.83523 12.5063 5.49357L11.3749 4.3622V10.1249H17.1377L16.0063 8.99357C15.6647 8.65191 15.6647 8.09798 16.0063 7.75632C16.348 7.41466 16.9019 7.41466 17.2436 7.75632L19.7801 10.2928C20.1706 10.6834 20.1706 11.3165 19.7801 11.7071L17.2436 14.2436C16.9019 14.5852 16.348 14.5852 16.0063 14.2436C15.6647 13.9019 15.6647 13.348 16.0063 13.0063L17.1377 11.8749H11.3749V17.6377L12.5063 16.5063C12.848 16.1647 13.4019 16.1647 13.7436 16.5063C14.0852 16.848 14.0852 17.4019 13.7436 17.7436L11.2071 20.2801Z" fill="#6D7A83"/>
</svg>
