<svg width="21" height="22" viewBox="0 0 21 22" fill="none" xmlns="http://www.w3.org/2000/svg">
<g clip-path="url(#clip0_14146_4451)">
<path d="M2.46126 14.0333L1.35293 18.8167C1.3147 18.9915 1.31601 19.1727 1.35677 19.347C1.39753 19.5213 1.4767 19.6842 1.58852 19.824C1.70033 19.9638 1.84195 20.0768 2.00304 20.1548C2.16413 20.2328 2.34061 20.2739 2.5196 20.275C2.603 20.2834 2.68703 20.2834 2.77043 20.275L7.58293 19.1666L16.8229 9.96165L11.6663 4.81665L2.46126 14.0333Z" fill="#6D7A83"/>
<path d="M19.7283 5.35336L16.2866 1.91169C16.0603 1.68656 15.7541 1.56018 15.4349 1.56018C15.1157 1.56018 14.8095 1.68656 14.5833 1.91169L12.6699 3.82502L17.8208 8.97586L19.7341 7.06252C19.8461 6.94999 19.9347 6.81647 19.9951 6.66963C20.0554 6.52278 20.0861 6.36548 20.0856 6.20673C20.0851 6.04798 20.0532 5.89089 19.9919 5.74446C19.9306 5.59803 19.841 5.46513 19.7283 5.35336Z" fill="#6D7A83"/>
</g>
<defs>
<clipPath id="clip0_14146_4451">
<rect width="21" height="21" fill="white" transform="translate(0 0.5)"/>
</clipPath>
</defs>
</svg>
