<svg width="23" height="23" viewBox="0 0 23 23" fill="none" xmlns="http://www.w3.org/2000/svg">
<path d="M20.5549 10.7604H19.2229C19.0488 8.94875 18.2497 7.25412 16.9628 5.96717C15.6758 4.68023 13.9812 3.88118 12.1695 3.70708V2.375C12.1695 2.18438 12.0938 2.00156 11.959 1.86677C11.8242 1.73198 11.6414 1.65625 11.4508 1.65625C11.2602 1.65625 11.0773 1.73198 10.9425 1.86677C10.8078 2.00156 10.732 2.18438 10.732 2.375V3.70708C8.92829 3.88989 7.2439 4.69298 5.96631 5.97931C4.68872 7.26564 3.89712 8.95548 3.72661 10.7604H2.39453C2.30014 10.7604 2.20668 10.779 2.11948 10.8151C2.03227 10.8512 1.95304 10.9042 1.8863 10.9709C1.81956 11.0377 1.76661 11.1169 1.73049 11.2041C1.69437 11.2913 1.67578 11.3848 1.67578 11.4792C1.67578 11.5736 1.69437 11.667 1.73049 11.7542C1.76661 11.8414 1.81956 11.9207 1.8863 11.9874C1.95304 12.0541 2.03227 12.1071 2.11948 12.1432C2.20668 12.1793 2.30014 12.1979 2.39453 12.1979H3.72661C3.90071 14.0096 4.69976 15.7042 5.9867 16.9912C7.27365 18.2781 8.96828 19.0771 10.7799 19.2512V20.5833C10.7799 20.774 10.8557 20.9568 10.9905 21.0916C11.1253 21.2264 11.3081 21.3021 11.4987 21.3021C11.6893 21.3021 11.8721 21.2264 12.0069 21.0916C12.1417 20.9568 12.2174 20.774 12.2174 20.5833V19.2512C14.0285 19.0754 15.7221 18.2758 17.0087 16.9892C18.2953 15.7026 19.0949 14.0089 19.2708 12.1979H20.6029C20.6973 12.1979 20.7907 12.1793 20.8779 12.1432C20.9651 12.1071 21.0444 12.0541 21.1111 11.9874C21.1778 11.9207 21.2308 11.8414 21.2669 11.7542C21.303 11.667 21.3216 11.5736 21.3216 11.4792C21.3216 11.3848 21.303 11.2913 21.2669 11.2041C21.2308 11.1169 21.1778 11.0377 21.1111 10.9709C21.0444 10.9042 20.9651 10.8512 20.8779 10.8151C20.7907 10.779 20.6973 10.7604 20.6029 10.7604H20.5549ZM11.4508 17.8425C10.1922 17.8425 8.96195 17.4693 7.9155 16.7701C6.86906 16.0709 6.05345 15.0771 5.57183 13.9143C5.0902 12.7516 4.96419 11.4721 5.20972 10.2377C5.45525 9.00338 6.0613 7.86954 6.95122 6.97961C7.84115 6.08968 8.97499 5.48363 10.2094 5.2381C11.4437 4.99257 12.7232 5.11859 13.8859 5.60021C15.0487 6.08184 16.0425 6.89744 16.7417 7.94389C17.4409 8.99033 17.8141 10.2206 17.8141 11.4792C17.8141 13.1677 17.144 14.7872 15.9509 15.9821C14.7578 17.177 13.1393 17.8495 11.4508 17.8521V17.8425Z" fill="#48443B"/>
<path d="M15.7915 11.4876C15.7915 12.3485 15.5361 13.1901 15.0576 13.9057C14.5791 14.6214 13.899 15.1791 13.1034 15.5081C12.3079 15.8371 11.4326 15.9227 10.5883 15.7541C9.7441 15.5854 8.96888 15.1701 8.36079 14.5607C7.75269 13.9512 7.33907 13.1751 7.17228 12.3305C7.00549 11.4859 7.09302 10.6108 7.42379 9.81592C7.75456 9.02108 8.31371 8.34224 9.03046 7.86531C9.74721 7.38839 10.5893 7.13483 11.4503 7.13673C12.0212 7.13673 12.5865 7.24933 13.1138 7.4681C13.6411 7.68687 14.1201 8.0075 14.5234 8.41164C14.9266 8.81578 15.2462 9.29548 15.4638 9.82329C15.6814 10.3511 15.7928 10.9167 15.7915 11.4876Z" fill="#48443B"/>
</svg>
