<svg width="26" height="26" viewBox="0 0 26 26" fill="none" xmlns="http://www.w3.org/2000/svg">
<path d="M8.20591 11.2344H6.88468C6.67439 11.2344 6.50391 11.4049 6.50391 11.6151V19.4999H8.20591V11.2344Z" fill="white"/>
<path d="M19.122 11.2344H17.8008V19.4999H19.5028V11.6151C19.5028 11.4049 19.3323 11.2344 19.122 11.2344Z" fill="white"/>
<path d="M13.6602 16.957V19.5013H12.3359V16.957H13.6602Z" fill="white"/>
<path d="M16.654 8.06787H15.4553V6.88468C15.4553 6.67439 15.2848 6.50391 15.0745 6.50391H10.9791C10.7688 6.50391 10.5983 6.67439 10.5983 6.88468V8.06787H9.34562C9.13533 8.06787 8.96484 8.23836 8.96484 8.44864V19.501H11.5761V16.5759C11.5761 16.3656 11.7466 16.1952 11.9569 16.1952H14.0427C14.253 16.1952 14.4235 16.3656 14.4235 16.5759V19.501H17.0348V8.44864C17.0348 8.23836 16.8643 8.06787 16.654 8.06787ZM11.2756 14.8793H10.8655C10.6553 14.8793 10.4848 14.7088 10.4848 14.4985C10.4848 14.2882 10.6553 14.1177 10.8655 14.1177H11.2756C11.4859 14.1177 11.6564 14.2882 11.6564 14.4985C11.6564 14.7088 11.4859 14.8793 11.2756 14.8793ZM11.2756 13.3562H10.8655C10.6553 13.3562 10.4848 13.1857 10.4848 12.9754C10.4848 12.7651 10.6553 12.5946 10.8655 12.5946H11.2756C11.4859 12.5946 11.6564 12.7651 11.6564 12.9754C11.6564 13.1857 11.4859 13.3562 11.2756 13.3562ZM11.2756 11.8331H10.8655C10.6553 11.8331 10.4848 11.6626 10.4848 11.4523C10.4848 11.242 10.6553 11.0715 10.8655 11.0715H11.2756C11.4859 11.0715 11.6564 11.242 11.6564 11.4523C11.6564 11.6626 11.4859 11.8331 11.2756 11.8331ZM13.2049 14.8793H12.7948C12.5845 14.8793 12.414 14.7088 12.414 14.4985C12.414 14.2882 12.5845 14.1177 12.7948 14.1177H13.2049C13.4151 14.1177 13.5856 14.2882 13.5856 14.4985C13.5856 14.7088 13.4151 14.8793 13.2049 14.8793ZM13.2049 13.3562H12.7948C12.5845 13.3562 12.414 13.1857 12.414 12.9754C12.414 12.7651 12.5845 12.5946 12.7948 12.5946H13.2049C13.4151 12.5946 13.5856 12.7651 13.5856 12.9754C13.5856 13.1857 13.4151 13.3562 13.2049 13.3562ZM13.2049 11.8331H12.7948C12.5845 11.8331 12.414 11.6626 12.414 11.4523C12.414 11.242 12.5845 11.0715 12.7948 11.0715H13.2049C13.4151 11.0715 13.5856 11.242 13.5856 11.4523C13.5856 11.6626 13.4151 11.8331 13.2049 11.8331ZM13.7672 9.55596H13.3806V9.9426C13.3806 10.1529 13.2101 10.3234 12.9998 10.3234C12.7895 10.3234 12.6191 10.1529 12.6191 9.9426V9.55596H12.2324C12.0221 9.55596 11.8516 9.38547 11.8516 9.17519C11.8516 8.9649 12.0221 8.79441 12.2324 8.79441H12.6191V8.40777C12.6191 8.19749 12.7895 8.027 12.9998 8.027C13.2101 8.027 13.3806 8.19749 13.3806 8.40777V8.79441H13.7672C13.9775 8.79441 14.148 8.9649 14.148 9.17519C14.148 9.38547 13.9775 9.55596 13.7672 9.55596ZM15.1341 14.8793H14.724C14.5138 14.8793 14.3433 14.7088 14.3433 14.4985C14.3433 14.2882 14.5138 14.1177 14.724 14.1177H15.1341C15.3444 14.1177 15.5149 14.2882 15.5149 14.4985C15.5149 14.7088 15.3444 14.8793 15.1341 14.8793ZM15.1341 13.3562H14.724C14.5138 13.3562 14.3433 13.1857 14.3433 12.9754C14.3433 12.7651 14.5138 12.5946 14.724 12.5946H15.1341C15.3444 12.5946 15.5149 12.7651 15.5149 12.9754C15.5149 13.1857 15.3444 13.3562 15.1341 13.3562ZM15.1341 11.8331H14.724C14.5138 11.8331 14.3433 11.6626 14.3433 11.4523C14.3433 11.242 14.5138 11.0715 14.724 11.0715H15.1341C15.3444 11.0715 15.5149 11.242 15.5149 11.4523C15.5149 11.6626 15.3444 11.8331 15.1341 11.8331Z" fill="white"/>
</svg>
