<svg width="26" height="26" viewBox="0 0 26 26" fill="none" xmlns="http://www.w3.org/2000/svg">
<path fill-rule="evenodd" clip-rule="evenodd" d="M16.848 7.10922C16.8023 7.06295 16.7478 7.02633 16.6877 7.00153C16.6276 6.97674 16.5631 6.96427 16.498 6.96486H9.49878C9.43275 6.96427 9.36728 6.97691 9.30621 7.00203C9.24515 7.02716 9.18975 7.06427 9.14326 7.11116C9.09678 7.15805 9.06016 7.21378 9.03557 7.27506C9.01097 7.33634 8.99891 7.40192 9.00008 7.46794V19.966H16.9967V7.46794C16.9977 7.40117 16.985 7.3349 16.9594 7.27322C16.9339 7.21153 16.8959 7.15572 16.848 7.10922ZM11.4979 16.4664H10.5005V14.9659H11.5023L11.4979 16.4664ZM11.4979 13.4654H10.5005V11.965H11.5023L11.4979 13.4654ZM11.4979 10.4645H10.5005V8.96403H11.5023L11.4979 10.4645ZM13.4971 16.462H12.4997V14.9659H13.5015L13.4971 16.462ZM13.4971 13.4611H12.4997V11.965H13.5015L13.4971 13.4611ZM13.4971 10.4601H12.4997V8.96403H13.5015L13.4971 10.4601ZM15.4963 16.4576H14.4989V14.9659H15.5007L15.4963 16.4576ZM15.4963 13.4567H14.4989V11.965H15.5007L15.4963 13.4567ZM15.4963 10.4558H14.4989V8.96403H15.5007L15.4963 10.4558Z" fill="white"/>
<path d="M18 13.957H19.9992V19.9633H18V13.957Z" fill="white"/>
<path d="M6 13.9648H7.99917V19.9623H6V13.9648Z" fill="white"/>
</svg>
