<svg width="26" height="26" viewBox="0 0 26 26" fill="none" xmlns="http://www.w3.org/2000/svg">
<path d="M15.4131 6.5H19.1045C19.3229 6.5 19.5 6.67708 19.5 6.89551V7.81836H15.0176V6.89551C15.0176 6.67708 15.1947 6.5 15.4131 6.5Z" fill="white"/>
<path d="M6.1987 10.2663C6.32163 10.1958 6.47284 10.1964 6.59516 10.268L10.5088 12.5566V10.6094C10.5088 10.4677 10.5846 10.3368 10.7075 10.2663C10.8304 10.1958 10.9816 10.1964 11.1039 10.268L15.0176 12.5566V8.60547H19.5V19.6006C19.5 19.819 19.3229 19.9961 19.1045 19.9961H6.39551C6.17708 19.9961 6 19.819 6 19.6006V10.6094C6 10.4677 6.07581 10.3368 6.1987 10.2663ZM13.4355 17.2144C13.4355 17.4328 13.6126 17.6099 13.8311 17.6099H15.4131C15.6315 17.6099 15.8086 17.4328 15.8086 17.2144V15.6323C15.8086 15.4139 15.6315 15.2368 15.4131 15.2368H13.8311C13.6126 15.2368 13.4355 15.4139 13.4355 15.6323V17.2144ZM8.92676 17.2144C8.92676 17.4328 9.10384 17.6099 9.32227 17.6099H10.9043C11.1227 17.6099 11.2998 17.4328 11.2998 17.2144V15.6323C11.2998 15.4139 11.1227 15.2368 10.9043 15.2368H9.32227C9.10384 15.2368 8.92676 15.4139 8.92676 15.6323V17.2144Z" fill="white"/>
</svg>
