<svg width="26" height="26" viewBox="0 0 26 26" fill="none" xmlns="http://www.w3.org/2000/svg">
<path d="M10.9101 12.5211C10.9101 12.3383 11.0563 12.1887 11.2425 12.1887H14.7859C14.9721 12.1887 15.1184 12.3383 15.1184 12.5211V13.0762H18.5089L15.6668 9.66241C15.0785 8.96103 14.2474 8.52558 13.3466 8.43915V7.77434V7.44193L14.5898 7.02642C15.4175 6.75385 16.1787 6.28183 16.7937 5.66356C16.8901 5.57048 16.92 5.42755 16.8668 5.30123C16.817 5.17824 16.694 5.09846 16.561 5.09846C16.0092 5.09846 15.4607 5.00871 14.9389 4.83586L13.1439 4.23753C13.1239 4.22756 13.104 4.22091 13.0807 4.21759C13.0608 4.21426 13.0375 4.21094 13.0142 4.21094C12.991 4.21094 12.9677 4.21426 12.9477 4.21759C12.9278 4.22091 12.9078 4.22756 12.8846 4.23753C12.8646 4.24418 12.848 4.25747 12.8281 4.26745C12.7915 4.29072 12.7616 4.32396 12.735 4.36052C12.725 4.37714 12.7151 4.39709 12.7084 4.41371C12.6984 4.43365 12.6918 4.45359 12.6885 4.47686C12.6851 4.49681 12.6818 4.52008 12.6818 4.54334V7.2026V7.77434V8.43915C11.781 8.52558 10.95 8.96103 10.3616 9.66241L7.51953 13.0762H10.9101V12.5211Z" fill="white"/>
<path d="M7.07037 13.7422L5.46484 20.1676H9.21107L10.8199 13.7422H7.07037Z" fill="white"/>
<path d="M11.582 13.9624H14.4607V13.4106V12.8555H11.582V13.4106V13.9624Z" fill="white"/>
<path d="M11.2807 14.625L9.89453 20.1662H16.1371L14.751 14.625H11.2807Z" fill="white"/>
<path d="M18.9644 13.7422H15.2148L16.8237 20.1676H20.5699L18.9644 13.7422Z" fill="white"/>
</svg>
