<svg width="26" height="26" viewBox="0 0 26 26" fill="none" xmlns="http://www.w3.org/2000/svg">
<path d="M11.7967 6.84563C12.1755 5.71812 13.8245 5.71812 14.2033 6.84563L14.9884 9.1829C15.1578 9.68714 15.6436 10.0285 16.1917 10.0285H18.7324C19.958 10.0285 20.4676 11.5456 19.476 12.2424L17.4206 13.6869C16.9771 13.9986 16.7916 14.551 16.961 15.0552L17.7461 17.3925C18.1248 18.52 16.7907 19.4576 15.7991 18.7607L13.7437 17.3162C13.3002 17.0046 12.6998 17.0046 12.2563 17.3162L10.2009 18.7607C9.20931 19.4576 7.87518 18.52 8.25392 17.3925L9.03903 15.0552C9.20841 14.551 9.02286 13.9986 8.57942 13.6869L6.52396 12.2424C5.5324 11.5456 6.042 10.0285 7.26763 10.0285H9.80832C10.3564 10.0285 10.8422 9.68714 11.0116 9.1829L11.7967 6.84563Z" fill="white"/>
</svg>
